# xmcd
#
# Track frame offsets:
#       150
#       11970
#       23570
#       35968
#       46666
#       60434
#       70867
#       82186
#       92699
#       104025
#
# Disc length: 1539 seconds
#
# Revision: 0
# Processed by: cddbd v1.4PL0 Copyright (c) Steve Scherf et al.
# Submitted via: CD-DA_X-Tractor v0.21
#
DISCID=8206010a
DTITLE=Patsy Cline - The Patsy Cline Collection
DYEAR=1900
DGENRE=
TTITLE0=Walkin' After Midnight
TTITLE1=I've Loved And Lost Again
TTITLE2=A Poor Man's Roses (Or A Rich Man's Gold)
TTITLE3=Honky Tonk Merry-Go Round
TTITLE4=A Church, A Courtoom And Then Goodbye
TTITLE5=Three Cigarettes In An Ashtray
TTITLE6=Dear God
TTITLE7=Lovesick Blues
TTITLE8=Just Out Of Reach
TTITLE9=Crazy Dreams
EXTD=
EXTT0=
EXTT1=
EXTT2=
EXTT3=
EXTT4=
EXTT5=
EXTT6=
EXTT7=
EXTT8=
EXTT9=
PLAYORDER=
